<?xml version="1.0" encoding="UTF-8" standalone="no"?>
<svg width="156px" height="90px" viewBox="0 0 156 90" version="1.1" xmlns="http://www.w3.org/2000/svg" xmlns:xlink="http://www.w3.org/1999/xlink">
    <!-- Generator: Sketch 43.1 (39012) - http://www.bohemiancoding.com/sketch -->
    <title>Group 7</title>
    <desc>Created with Sketch.</desc>
    <defs></defs>
    <g id="Page-1" stroke="none" stroke-width="1" fill="none" fill-rule="evenodd">
        <g id="Desktop-HD-Copy-4" transform="translate(-251.000000, -92.000000)">
            <g id="Group-7" transform="translate(252.000000, 93.000000)">
                <g id="Group-6" transform="translate(66.000000, 0.000000)" stroke="#FFCCCC" fill="#FFCCCC">
                    <polygon id="Triangle-Copy-6" points="22.0568977 0.682170543 33.0286183 22.5646549 11.085177 22.5646549"></polygon>
                    <polygon id="Triangle-Copy-7" points="44.0325614 0.682170543 55.004282 22.5646549 33.0608407 22.5646549"></polygon>
                    <polygon id="Triangle-Copy-8" points="66.0082251 0.682170543 76.9799458 22.5646549 55.0365044 22.5646549"></polygon>
                    <polygon id="Triangle-Copy-6" points="22.0568977 44.517842 33.0286183 66.4003264 11.085177 66.4003264"></polygon>
                    <polygon id="Triangle-Copy-7" transform="translate(33.044730, 11.623413) scale(1, -1) translate(-33.044730, -11.623413) " points="33.0447295 0.682170543 44.0164502 22.5646549 22.0730088 22.5646549"></polygon>
                    <polygon id="Triangle-Copy-8" transform="translate(55.020393, 11.623413) scale(1, -1) translate(-55.020393, -11.623413) " points="55.0203932 0.682170543 65.9921139 22.5646549 44.0486726 22.5646549"></polygon>
                    <polygon id="Triangle-Copy-7" points="11.0690658 22.6000063 22.0407865 44.4824907 0.0973451327 44.4824907"></polygon>
                    <polygon id="Triangle-Copy-7" points="76.996057 66.0821643 87.9677776 87.9646487 66.0243363 87.9646487"></polygon>
                    <polygon id="Triangle-Copy-8" transform="translate(22.056898, 33.541248) scale(1, -1) translate(-22.056898, -33.541248) " points="22.0568977 22.6000063 33.0286183 44.4824907 11.085177 44.4824907"></polygon>
                    <polygon id="Triangle-Copy-6" points="76.996057 22.6000063 87.9677776 44.4824907 66.0243363 44.4824907"></polygon>
                    <polygon id="Triangle-Copy-6" transform="translate(66.008225, 33.541248) scale(1, -1) translate(-66.008225, -33.541248) " points="66.0082251 22.6000063 76.9799458 44.4824907 55.0365044 44.4824907"></polygon>
                    <polygon id="Triangle-Copy-7" transform="translate(11.069066, 55.459084) scale(1, -1) translate(-11.069066, -55.459084) " points="11.0690658 44.517842 22.0407865 66.4003264 0.0973451327 66.4003264"></polygon>
                    <polygon id="Triangle-Copy-6" points="66.0082251 44.1643285 76.9799458 66.0468129 55.0365044 66.0468129"></polygon>
                    <polygon id="Triangle-Copy-7" transform="translate(76.996057, 55.105571) scale(1, -1) translate(-76.996057, -55.105571) " points="76.996057 44.1643285 87.9677776 66.0468129 66.0243363 66.0468129"></polygon>
                    <polygon id="Triangle-Copy-6" points="33.0447295 66.0468129 44.0164502 87.9292973 22.0730088 87.9292973"></polygon>
                    <polygon id="Triangle-Copy-7" points="55.0203932 66.0468129 65.9921139 87.9292973 44.0486726 87.9292973"></polygon>
                    <polygon id="Triangle-Copy-6" transform="translate(22.056898, 76.988055) scale(1, -1) translate(-22.056898, -76.988055) " points="22.0568977 66.0468129 33.0286183 87.9292973 11.085177 87.9292973"></polygon>
                    <polyline id="Triangle-Copy-7" points="44.0325614 87.9292973 55.004282 66.0468129 33.0608407 66.0468129"></polyline>
                    <polyline id="Triangle-Copy-8" points="66.0082251 87.9292973 76.9799458 66.0468129 55.0365044 66.0468129"></polyline>
                </g>
                <g id="Group-5" stroke="#FF7F7F" fill="#FF7F7F">
                    <polygon id="Triangle-Copy-6" transform="translate(76.779489, 54.982258) scale(1, -1) translate(-76.779489, -54.982258) " points="76.779489 44 87.7341993 65.9645161 65.8247788 65.9645161"></polygon>
                    <polygon id="Triangle-Copy-8" points="87.7502855 0 98.7049957 21.9645161 76.7955752 21.9645161"></polygon>
                    <polygon id="Triangle-Copy-6" points="76.779489 22 87.7341993 43.9645161 65.8247788 43.9645161"></polygon>
                    <polygon id="Triangle-Copy-6" transform="translate(87.750285, 32.982258) scale(1, -1) translate(-87.750285, -32.982258) " points="87.7502855 22 98.7049957 43.9645161 76.7955752 43.9645161"></polygon>
                    <polygon id="Triangle-Copy-6" points="43.8670996 0 54.8218099 21.9645161 32.9123894 21.9645161"></polygon>
                    <polygon id="Triangle-Copy-7" transform="translate(43.867100, 32.627419) scale(1, -1) translate(-43.867100, -32.627419) " points="43.8670996 21.6451613 54.8218099 43.6096774 32.9123894 43.6096774"></polygon>
                    <polygon id="Triangle-Copy-6" transform="translate(54.837896, 10.982258) scale(1, -1) translate(-54.837896, -10.982258) " points="54.8378961 -1.0658141e-14 65.7926063 21.9645161 43.8831858 21.9645161"></polygon>
                    <polygon id="Triangle-Copy-7" points="32.8963032 22 43.8510134 43.9645161 21.9415929 43.9645161"></polygon>
                    <polygon id="Triangle-Copy-6" points="43.8670996 43.6451613 54.8218099 65.6096774 32.9123894 65.6096774"></polygon>
                    <polygon id="Triangle-Copy-5" transform="translate(54.837896, 54.982258) scale(1, -1) translate(-54.837896, -54.982258) " points="54.8378961 44 65.7926063 65.9645161 43.8831858 65.9645161"></polygon>
                    <polygon id="Triangle-Copy-7" transform="translate(21.925507, 76.627419) scale(1, -1) translate(-21.925507, -76.627419) " points="21.9255067 65.6451613 32.880217 87.6096774 10.9707965 87.6096774"></polygon>
                    <polygon id="Triangle-Copy-8" points="10.9547102 65.6451613 21.9094205 87.6096774 0 87.6096774"></polygon>
                    <polygon id="Triangle-Copy-7" points="21.9255067 43.6451613 32.880217 65.6096774 10.9707965 65.6096774"></polygon>
                    <polygon id="Triangle-Copy-8" points="54.8378961 65.6451613 65.7926063 87.6096774 43.8831858 87.6096774"></polygon>
                    <polygon id="Triangle-Copy-6" transform="translate(65.808693, 76.982258) scale(1, -1) translate(-65.808693, -76.982258) " points="65.8086925 66 76.7634028 87.9645161 54.8539823 87.9645161"></polygon>
                    <polygon id="Triangle-Copy-8" transform="translate(32.896303, 54.627419) scale(1, -1) translate(-32.896303, -54.627419) " points="32.8963032 43.6451613 43.8510134 65.6096774 21.9415929 65.6096774"></polygon>
                    <polygon id="Triangle-Copy-5" points="65.8086925 44 76.7634028 65.9645161 54.8539823 65.9645161"></polygon>
                    <polygon id="Triangle-Copy-7" transform="translate(98.857365, 11.664429) scale(1, -1) translate(-98.857365, -11.664429) " points="98.8573651 0.682170543 109.812075 22.6466867 87.9026549 22.6466867"></polygon>
                </g>
            </g>
        </g>
    </g>
</svg>